<?xml version="1.0" encoding="UTF-8"?>
<svg id="Layer_1" xmlns="http://www.w3.org/2000/svg" version="1.1" viewBox="0 0 612 792">
  <!-- Generator: Adobe Illustrator 29.8.2, SVG Export Plug-In . SVG Version: 2.1.1 Build 3)  -->
  <defs>
    <style>
      .st0 {
        fill: #a33939;
      }
    </style>
  </defs>
  <path class="st0" d="M414.02,296.64c-2.68-17.11-8.89-33.06-17.87-47.06-9.08-14.17-21-26.35-34.96-35.75-13.97-9.4-29.99-16-47.23-19-6.89-1.2-13.98-1.83-21.21-1.83-9.93,0-19.58,1.18-28.83,3.41-15.33,3.69-29.54,10.25-42.03,19.1-13.73,9.72-25.37,22.19-34.13,36.61-7.52,12.38-12.91,26.18-15.66,40.92-1.38,7.36-2.1,14.95-2.1,22.71,0,9.38,1.05,18.52,3.05,27.3,3.11,13.7,8.52,26.54,15.8,38.08,8.98,14.25,20.81,26.52,34.69,36.01,11.11,7.6,23.53,13.42,36.85,17.05,10.31,2.81,21.16,4.31,32.36,4.31,5.98,0,11.85-.43,17.6-1.25,15.4-2.22,29.88-7.29,42.88-14.66,14.69-8.34,27.5-19.62,37.61-33.04,9.53-12.64,16.67-27.18,20.75-42.95,2.55-9.86,3.91-20.19,3.91-30.85,0-6.5-.51-12.88-1.48-19.11ZM360.1,357.88c-8.93,14.48-22.33,25.91-38.27,32.37-3.49,1.42-7.11,2.59-10.83,3.5-6.19,1.54-12.67,2.35-19.33,2.35-10.84,0-21.18-2.15-30.62-6.04-2.21-.91-4.38-1.92-6.49-3.03-15.12-7.88-27.41-20.43-34.97-35.74-1.22-2.46-2.31-4.99-3.28-7.59-3.23-8.7-4.99-18.12-4.99-27.95,0-7.66,1.07-15.06,3.07-22.08,1.01-3.53,2.25-6.97,3.72-10.28,6.91-15.71,18.71-28.78,33.47-37.3,3.72-2.14,7.62-3.99,11.68-5.53,8.83-3.33,18.41-5.16,28.41-5.16,7.5,0,14.76,1.03,21.64,2.95,5.61,1.56,10.98,3.72,16.02,6.41,15.05,7.99,27.25,20.63,34.7,36,2.33,4.82,4.2,9.92,5.53,15.22,1.61,6.32,2.46,12.95,2.46,19.77,0,10.67-2.08,20.86-5.86,30.18-1.69,4.17-3.72,8.16-6.06,11.95Z"/>
  <path class="st0" d="M254.56,387.03l-31.02,30.11-36.87,35.78c-13.27-10.2-25.01-22.29-34.82-35.87l37-35.92,30.74-29.84c7.56,15.31,19.85,27.86,34.97,35.74Z"/>
  <path class="st0" d="M431.49,215.28l-35.34,34.3-32.12,31.18c-7.45-15.37-19.65-28.01-34.7-36l31.86-30.93,35.47-34.43c13.27,10.21,25.02,22.3,34.83,35.88Z"/>
  <path class="st0" d="M221.89,215.51l29.69,30.58c-14.76,8.52-26.56,21.59-33.47,37.3l-30.35-31.27-35.85-36.93c9.83-13.58,21.58-25.66,34.86-35.86l35.12,36.18Z"/>
  <path class="st0" d="M425.33,425.08c-10.58,12.97-23.01,24.36-36.89,33.78l-35.21-36.27-31.4-32.34c15.94-6.46,29.34-17.89,38.27-32.37l30.74,31.67,34.49,35.53Z"/>
  <path class="st0" d="M291.67,396.1c6.66,0,13.14-.81,19.33-2.35l-.65,43.5-.75,50.4c-5.89.61-11.88.92-17.93.92-10.95,0-21.66-1.02-32.05-2.98l.77-51.4.66-44.13c9.44,3.89,19.78,6.04,30.62,6.04Z"/>
  <path class="st0" d="M314.69,145.29l-.73,49.54-.65,43.52c-6.88-1.92-14.14-2.95-21.64-2.95-10,0-19.58,1.83-28.41,5.16l.66-44.15.75-50.54c8.8-1.39,17.81-2.11,27-2.11,7.81,0,15.49.52,23.02,1.53Z"/>
  <path class="st0" d="M211.32,315.75c0,9.83,1.76,19.25,4.99,27.95l-43.26-.65-51.82-.77c-1.3-8.52-1.97-17.24-1.97-26.11,0-8.11.56-16.08,1.64-23.89l51.2.76,42.29.63c-2,7.02-3.07,14.42-3.07,22.08Z"/>
  <path class="st0" d="M464.08,316.17c0,10.64-.96,21.06-2.81,31.17l-49.68-.74-45.43-.67c3.78-9.32,5.86-19.51,5.86-30.18,0-6.82-.85-13.45-2.46-19.77l44.46.66,49.05.73c.67,6.18,1.01,12.45,1.01,18.8Z"/>
  <circle class="st0" cx="292.75" cy="315.75" r="54.25"/>
</svg>